<svg xmlns="http://www.w3.org/2000/svg" width="34.196" height="34.196" viewBox="0 0 34.196 34.196">
  <path id="calculate" d="M12.934,17.161h6.934a1.188,1.188,0,1,0,0-2.375H12.934a1.188,1.188,0,1,0,0,2.375ZM26.613,33.4h7.172a1.139,1.139,0,0,0,1.187-1.187,1.079,1.079,0,0,0-.332-.831,1.207,1.207,0,0,0-.855-.309H26.613a1.207,1.207,0,0,0-.855.309,1.079,1.079,0,0,0-.332.831A1.139,1.139,0,0,0,26.613,33.4Zm0-5.082h7.172a1.188,1.188,0,1,0,0-2.375H26.613a1.188,1.188,0,1,0,0,2.375ZM16.4,35.067a1.139,1.139,0,0,0,1.187-1.187V30.887h2.992a1.188,1.188,0,1,0,0-2.375H17.589V25.52a1.188,1.188,0,1,0-2.375,0v2.992H12.222a1.188,1.188,0,1,0,0,2.375h2.992v2.992A1.139,1.139,0,0,0,16.4,35.067Zm9.926-15.341a1.152,1.152,0,0,0,1.71,0l2.042-2.042,2.09,2.09A1.072,1.072,0,0,0,33,20.13a1.256,1.256,0,0,0,.831-.4,1.152,1.152,0,0,0,0-1.71l-2.042-2.042,2.09-2.09a1.072,1.072,0,0,0,.356-.831,1.256,1.256,0,0,0-.4-.831,1.152,1.152,0,0,0-1.71,0L30.08,14.264l-2.09-2.09a1.072,1.072,0,0,0-.831-.356,1.256,1.256,0,0,0-.831.4,1.152,1.152,0,0,0,0,1.71l2.042,2.042-2.09,2.09a1.072,1.072,0,0,0-.356.831,1.256,1.256,0,0,0,.4.831ZM8.85,40.2a2.734,2.734,0,0,1-1.995-.855A2.734,2.734,0,0,1,6,37.346V8.85a2.734,2.734,0,0,1,.855-1.995A2.734,2.734,0,0,1,8.85,6h28.5a2.734,2.734,0,0,1,1.995.855A2.734,2.734,0,0,1,40.2,8.85v28.5a2.922,2.922,0,0,1-2.85,2.85Zm0-2.85h28.5V8.85H8.85Zm0,0v0Z" transform="translate(-6 -6)" fill="#199fb2"/>
</svg>
