<svg xmlns="http://www.w3.org/2000/svg" width="45.595" height="22.797" viewBox="0 0 45.595 22.797">
  <path id="groups" d="M1.425,34.8A1.381,1.381,0,0,1,0,33.372V32.28a3.392,3.392,0,0,1,1.971-2.992,10.227,10.227,0,0,1,5.153-1.14q.57,0,1.116.024a7.88,7.88,0,0,1,1.069.119,7.938,7.938,0,0,0-.57,1.662,8.3,8.3,0,0,0-.19,1.8V34.8Zm11.4,0A1.381,1.381,0,0,1,11.4,33.372V31.758a5.723,5.723,0,0,1,3.158-5.011,15.677,15.677,0,0,1,8.24-1.924,15.651,15.651,0,0,1,8.264,1.924A5.728,5.728,0,0,1,34.2,31.758v1.615A1.381,1.381,0,0,1,32.771,34.8Zm24.222,0v-3.04a8.3,8.3,0,0,0-.19-1.8,7.938,7.938,0,0,0-.57-1.662,7.88,7.88,0,0,1,1.069-.119q.546-.024,1.116-.024a10.227,10.227,0,0,1,5.153,1.14,3.392,3.392,0,0,1,1.971,2.992v1.092A1.381,1.381,0,0,1,44.17,34.8ZM22.8,27.673a14.049,14.049,0,0,0-6.2,1.164Q14.248,30,14.248,31.758v.19h17.1V31.71q0-1.71-2.351-2.873A14.049,14.049,0,0,0,22.8,27.673Zm-15.673-.95a3.2,3.2,0,0,1-2.351-.974,3.325,3.325,0,0,1,0-4.7,3.2,3.2,0,0,1,2.351-.974A3.325,3.325,0,0,1,9.475,25.75,3.2,3.2,0,0,1,7.124,26.723Zm31.346,0a3.325,3.325,0,0,1-2.351-5.676,3.325,3.325,0,0,1,4.7,4.7A3.2,3.2,0,0,1,38.47,26.723ZM22.8,23.4a5.676,5.676,0,0,1-5.7-5.7A5.676,5.676,0,0,1,22.8,12a5.676,5.676,0,0,1,5.7,5.7,5.676,5.676,0,0,1-5.7,5.7Zm0-8.549a2.79,2.79,0,0,0-2.019.807,2.9,2.9,0,0,0,0,4.061,2.9,2.9,0,0,0,4.061,0A2.838,2.838,0,0,0,22.8,14.85ZM22.8,31.948ZM22.8,17.7Z" transform="translate(0 -12)" fill="#eb6875"/>
</svg>
