<svg xmlns="http://www.w3.org/2000/svg" width="38.375" height="36.476" viewBox="0 0 38.375 36.476">
  <path id="person" d="M21.246,22.248a7.135,7.135,0,0,1-7.172-7.124A7.094,7.094,0,0,1,21.2,8a7.054,7.054,0,0,1,7.124,7.077,6.958,6.958,0,0,1-2.066,5.082A6.784,6.784,0,0,1,21.246,22.248ZM21.2,19.4a4.091,4.091,0,0,0,3.04-1.259,4.154,4.154,0,0,0,1.235-3.016,4.131,4.131,0,0,0-1.235-3.04,4.075,4.075,0,0,0-2.992-1.235,4.21,4.21,0,0,0-3.063,1.235,4.037,4.037,0,0,0-1.259,2.992,4.169,4.169,0,0,0,1.259,3.063A4.114,4.114,0,0,0,21.2,19.4Zm20.755,24.65L36.3,38.4a6.672,6.672,0,0,1-2.256,1.116,9.313,9.313,0,0,1-2.4.309,8.027,8.027,0,0,1-8.074-8.074,8.027,8.027,0,0,1,8.074-8.074,8.027,8.027,0,0,1,8.074,8.074,9.313,9.313,0,0,1-.309,2.4A6.672,6.672,0,0,1,38.3,36.4l5.652,5.652a1.411,1.411,0,1,1-1.995,1.995ZM31.647,36.972a5.273,5.273,0,0,0,3.728-8.953,5.273,5.273,0,0,0-7.457,7.457A5.06,5.06,0,0,0,31.647,36.972ZM23,38.4H8.85A2.838,2.838,0,0,1,6,35.547V33.932a5.234,5.234,0,0,1,.831-2.992A6.269,6.269,0,0,1,9.23,28.9a33.476,33.476,0,0,1,5.818-2.066,22.213,22.213,0,0,1,7.29-.736,12.023,12.023,0,0,0-.712,1.354A9.423,9.423,0,0,0,21.1,28.9a19.505,19.505,0,0,0-6.459.879,34.8,34.8,0,0,0-4.274,1.686,3.211,3.211,0,0,0-1.092,1.021,2.552,2.552,0,0,0-.427,1.449v1.615H21.1q.522.807.95,1.5A14.97,14.97,0,0,0,23,38.4ZM21.2,15.124ZM21.1,35.547Z" transform="translate(-6 -8)" fill="#5fd5cd"/>
</svg>
