<svg xmlns="http://www.w3.org/2000/svg" width="42.745" height="41.795" viewBox="0 0 42.745 41.795">
  <path id="tips" d="M41.185,16.291,38.811,15.2l2.375-1.092,1.092-2.375,1.092,2.375L45.745,15.2,43.37,16.291l-1.092,2.375Zm-6.6-9.451L31.069,5.177l3.515-1.662L36.246,0l1.662,3.515,3.515,1.662L37.908,6.839l-1.662,3.515ZM17.248,41.795A3.811,3.811,0,0,1,13.4,37.948H21.1a3.811,3.811,0,0,1-3.847,3.847ZM10.979,35a1.425,1.425,0,1,1,0-2.85H23.518a1.425,1.425,0,1,1,0,2.85ZM9.792,29.256a15.583,15.583,0,0,1-4.963-5.106A13.222,13.222,0,0,1,3,17.24,13.7,13.7,0,0,1,7.227,7.219,13.7,13.7,0,0,1,17.248,2.992,13.7,13.7,0,0,1,27.27,7.219,13.7,13.7,0,0,1,31.5,17.24a13.356,13.356,0,0,1-1.8,6.91A15.2,15.2,0,0,1,24.7,29.256Zm1.045-2.85H23.708a11.068,11.068,0,0,0,3.61-3.942,10.684,10.684,0,0,0,1.33-5.224A10.976,10.976,0,0,0,25.3,9.19a10.976,10.976,0,0,0-8.05-3.348A10.976,10.976,0,0,0,9.2,9.19,10.976,10.976,0,0,0,5.85,17.24a10.684,10.684,0,0,0,1.33,5.224A10.917,10.917,0,0,0,10.837,26.407ZM17.248,26.407Z" transform="translate(-3)" fill="#eac357"/>
</svg>
